<mxfile host="app.diagrams.net" agent="Mozilla/5.0 (Windows NT 10.0; Win64; x64) AppleWebKit/537.36 (KHTML, like Gecko) Chrome/136.0.0.0 Safari/537.36 Edg/136.0.0.0" version="27.0.6">
  <diagram name="第 1 页" id="tmC9bnZbSdhemGVkfjyp">
    <mxGraphModel dx="521" dy="903" grid="1" gridSize="10" guides="1" tooltips="1" connect="1" arrows="1" fold="1" page="1" pageScale="1" pageWidth="827" pageHeight="1169" math="0" shadow="0">
      <root>
        <mxCell id="0" />
        <mxCell id="1" parent="0" />
        <mxCell id="uEPqxef7ucB0UV2PVF39-6" style="edgeStyle=none;curved=1;rounded=0;orthogonalLoop=1;jettySize=auto;html=1;exitX=1;exitY=0.5;exitDx=0;exitDy=0;fontSize=12;startSize=8;endSize=8;" edge="1" parent="1" source="uEPqxef7ucB0UV2PVF39-1" target="uEPqxef7ucB0UV2PVF39-2">
          <mxGeometry relative="1" as="geometry" />
        </mxCell>
        <mxCell id="uEPqxef7ucB0UV2PVF39-1" value="用户上传文档" style="rounded=0;whiteSpace=wrap;html=1;" vertex="1" parent="1">
          <mxGeometry x="60" y="80" width="80" height="40" as="geometry" />
        </mxCell>
        <mxCell id="uEPqxef7ucB0UV2PVF39-7" style="edgeStyle=none;curved=1;rounded=0;orthogonalLoop=1;jettySize=auto;html=1;exitX=1;exitY=0.5;exitDx=0;exitDy=0;fontSize=12;startSize=8;endSize=8;" edge="1" parent="1" source="uEPqxef7ucB0UV2PVF39-2" target="uEPqxef7ucB0UV2PVF39-3">
          <mxGeometry relative="1" as="geometry" />
        </mxCell>
        <mxCell id="uEPqxef7ucB0UV2PVF39-2" value="文档加载器" style="rounded=0;whiteSpace=wrap;html=1;" vertex="1" parent="1">
          <mxGeometry x="170" y="80" width="80" height="40" as="geometry" />
        </mxCell>
        <mxCell id="uEPqxef7ucB0UV2PVF39-16" style="edgeStyle=orthogonalEdgeStyle;rounded=0;orthogonalLoop=1;jettySize=auto;html=1;exitX=1;exitY=0.5;exitDx=0;exitDy=0;entryX=0.5;entryY=0;entryDx=0;entryDy=0;fontSize=12;startSize=8;endSize=8;" edge="1" parent="1" source="uEPqxef7ucB0UV2PVF39-3" target="uEPqxef7ucB0UV2PVF39-5">
          <mxGeometry relative="1" as="geometry" />
        </mxCell>
        <mxCell id="uEPqxef7ucB0UV2PVF39-3" value="文档分割器" style="rounded=0;whiteSpace=wrap;html=1;" vertex="1" parent="1">
          <mxGeometry x="280" y="80" width="90" height="40" as="geometry" />
        </mxCell>
        <mxCell id="uEPqxef7ucB0UV2PVF39-23" style="edgeStyle=none;curved=1;rounded=0;orthogonalLoop=1;jettySize=auto;html=1;exitX=0.5;exitY=1;exitDx=0;exitDy=0;entryX=0.5;entryY=0;entryDx=0;entryDy=0;fontSize=12;startSize=8;endSize=8;" edge="1" parent="1" source="uEPqxef7ucB0UV2PVF39-5" target="uEPqxef7ucB0UV2PVF39-21">
          <mxGeometry relative="1" as="geometry" />
        </mxCell>
        <mxCell id="uEPqxef7ucB0UV2PVF39-5" value="FAISS向量数据库" style="rounded=0;whiteSpace=wrap;html=1;" vertex="1" parent="1">
          <mxGeometry x="390" y="160" width="80" height="40" as="geometry" />
        </mxCell>
        <mxCell id="uEPqxef7ucB0UV2PVF39-9" value="嵌入模型Embedding" style="text;strokeColor=none;fillColor=none;html=1;align=center;verticalAlign=middle;whiteSpace=wrap;rounded=0;fontSize=11;" vertex="1" parent="1">
          <mxGeometry x="370" y="70" width="100" height="30" as="geometry" />
        </mxCell>
        <mxCell id="uEPqxef7ucB0UV2PVF39-20" style="edgeStyle=none;curved=1;rounded=0;orthogonalLoop=1;jettySize=auto;html=1;exitX=1;exitY=0.5;exitDx=0;exitDy=0;fontSize=12;startSize=8;endSize=8;" edge="1" parent="1" source="uEPqxef7ucB0UV2PVF39-10" target="uEPqxef7ucB0UV2PVF39-11">
          <mxGeometry relative="1" as="geometry" />
        </mxCell>
        <mxCell id="uEPqxef7ucB0UV2PVF39-22" style="edgeStyle=orthogonalEdgeStyle;rounded=0;orthogonalLoop=1;jettySize=auto;html=1;entryX=0;entryY=0.5;entryDx=0;entryDy=0;fontSize=12;startSize=8;endSize=8;exitX=0.5;exitY=1;exitDx=0;exitDy=0;" edge="1" parent="1" source="uEPqxef7ucB0UV2PVF39-10" target="uEPqxef7ucB0UV2PVF39-21">
          <mxGeometry relative="1" as="geometry" />
        </mxCell>
        <mxCell id="uEPqxef7ucB0UV2PVF39-10" value="用户输入问题" style="rounded=0;whiteSpace=wrap;html=1;" vertex="1" parent="1">
          <mxGeometry x="60" y="160" width="80" height="40" as="geometry" />
        </mxCell>
        <mxCell id="uEPqxef7ucB0UV2PVF39-18" style="edgeStyle=none;curved=1;rounded=0;orthogonalLoop=1;jettySize=auto;html=1;exitX=1;exitY=0.5;exitDx=0;exitDy=0;fontSize=12;startSize=8;endSize=8;" edge="1" parent="1" source="uEPqxef7ucB0UV2PVF39-11" target="uEPqxef7ucB0UV2PVF39-5">
          <mxGeometry relative="1" as="geometry" />
        </mxCell>
        <mxCell id="uEPqxef7ucB0UV2PVF39-11" value="问题向量化" style="rounded=0;whiteSpace=wrap;html=1;" vertex="1" parent="1">
          <mxGeometry x="220" y="160" width="80" height="40" as="geometry" />
        </mxCell>
        <mxCell id="uEPqxef7ucB0UV2PVF39-19" value="检索" style="text;strokeColor=none;fillColor=none;html=1;align=center;verticalAlign=middle;whiteSpace=wrap;rounded=0;fontSize=14;" vertex="1" parent="1">
          <mxGeometry x="310" y="150" width="60" height="30" as="geometry" />
        </mxCell>
        <mxCell id="uEPqxef7ucB0UV2PVF39-24" style="edgeStyle=none;curved=1;rounded=0;orthogonalLoop=1;jettySize=auto;html=1;exitX=0.5;exitY=1;exitDx=0;exitDy=0;fontSize=12;startSize=8;endSize=8;" edge="1" parent="1" source="uEPqxef7ucB0UV2PVF39-21">
          <mxGeometry relative="1" as="geometry">
            <mxPoint x="430" y="340" as="targetPoint" />
          </mxGeometry>
        </mxCell>
        <mxCell id="uEPqxef7ucB0UV2PVF39-21" value="LLM" style="rounded=0;whiteSpace=wrap;html=1;" vertex="1" parent="1">
          <mxGeometry x="390" y="260" width="80" height="40" as="geometry" />
        </mxCell>
        <mxCell id="uEPqxef7ucB0UV2PVF39-25" value="最终回答" style="rounded=0;whiteSpace=wrap;html=1;" vertex="1" parent="1">
          <mxGeometry x="400" y="340" width="80" height="40" as="geometry" />
        </mxCell>
        <mxCell id="uEPqxef7ucB0UV2PVF39-26" value="检索结果" style="text;strokeColor=none;fillColor=none;html=1;align=center;verticalAlign=middle;whiteSpace=wrap;rounded=0;fontSize=11;" vertex="1" parent="1">
          <mxGeometry x="410" y="220" width="100" height="30" as="geometry" />
        </mxCell>
        <mxCell id="uEPqxef7ucB0UV2PVF39-27" value="嵌入模型Embedding" style="text;strokeColor=none;fillColor=none;html=1;align=center;verticalAlign=middle;whiteSpace=wrap;rounded=0;fontSize=11;" vertex="1" parent="1">
          <mxGeometry x="130" y="150" width="100" height="30" as="geometry" />
        </mxCell>
      </root>
    </mxGraphModel>
  </diagram>
</mxfile>
